<?xml version="1.0" encoding="utf-8"?>
<!-- Generator: Adobe Illustrator 25.4.1, SVG Export Plug-In . SVG Version: 6.00 Build 0)  -->
<svg version="1.1" id="レイヤー_1" xmlns="http://www.w3.org/2000/svg" xmlns:xlink="http://www.w3.org/1999/xlink" x="0px"
	 y="0px" viewBox="0 0 32 32" style="enable-background:new 0 0 32 32;" xml:space="preserve">
<style type="text/css">
	.st0{fill:#FF95A8;}
	.st1{fill:#FFFFFF;}
</style>
<polygon class="st0" points="11.2,28.4 9.7,27.1 19.6,15.8 9.8,4.9 11.2,3.6 22.3,15.8 "/>
<g>
	<g id="Cart">
		<g>
			<path class="st1" d="M-11.5,0.8c-0.1-0.5-0.7-0.9-1.2-0.7l-4,1c-0.4,0.1-0.7,0.4-0.7,0.8L-18,5.1l-24.6,3c0,0,0,0-0.1,0
				c0,0,0,0-0.1,0c-0.1,0-0.1,0-0.1,0.1c-0.1,0-0.1,0-0.2,0.1c-0.1,0-0.1,0.1-0.2,0.2c0,0-0.1,0-0.1,0.1c0,0,0,0,0,0
				c-0.1,0.1-0.1,0.2-0.1,0.3c0,0,0,0.1,0,0.1c0,0.1,0,0.3,0,0.4l3,12l1,4c0,0,0,0.1,0,0.1c0,0,0,0.1,0.1,0.1c0,0.1,0.1,0.1,0.1,0.2
				c0,0,0.1,0.1,0.1,0.1c0.1,0.1,0.1,0.1,0.2,0.1c0,0,0.1,0,0.1,0.1c0.1,0,0.2,0.1,0.4,0.1h21c0.6,0,1-0.4,1-1c0-0.6-0.4-1-1-1
				h-20.2l-0.5-2h18.7c0.1,0,0.2,0,0.4-0.1c0,0,0.1,0,0.1-0.1c0.1,0,0.1-0.1,0.2-0.1c0,0,0.1-0.1,0.1-0.1c0-0.1,0.1-0.1,0.1-0.1
				c0-0.1,0-0.1,0.1-0.2c0-0.1,0-0.1,0.1-0.2l0,0v0l2.9-18.3l3.4-0.8C-11.7,1.8-11.4,1.3-11.5,0.8z M-38.7,20l-2.5-10.1l3.1-0.4
				l1.5,10.5H-38.7z M-34.6,20l-1.5-10.7l3.1-0.4l0.5,11.1H-34.6z M-28.4,20h-2.1L-31,8.6l3.1-0.4L-28.4,20z M-24.4,20h-2.1l0.5-12
				l3.1-0.4L-24.4,20z M-20.4,20h-2l1.6-12.6l2.1-0.3L-20.4,20z M-34.5,28c-1.1,0-2,0.9-2,2s0.9,2,2,2c1.1,0,2-0.9,2-2
				C-32.5,28.9-33.4,28-34.5,28z M-21.5,28c-1.1,0-2,0.9-2,2s0.9,2,2,2c1.1,0,2-0.9,2-2C-19.5,28.9-20.4,28-21.5,28z"/>
		</g>
	</g>
</g>
</svg>
